<svg width="44" height="44" xmlns="http://www.w3.org/2000/svg"><g fill="#FFF" fill-rule="nonzero"><path d="M24.805 10.136a2.373 2.373 0 1 1-4.745 0V3.018a2.373 2.373 0 0 1 4.745 0v7.118z"/><path d="M18.524 10.42a2.373 2.373 0 0 1-4.11 2.374l-3.559-6.165a2.373 2.373 0 1 1 4.11-2.373l3.56 6.165z" fill-opacity=".92"/><path d="M13.226 13.808a2.373 2.373 0 1 1-2.372 4.11l-6.165-3.56a2.373 2.373 0 0 1 2.373-4.11l6.164 3.56z" fill-opacity=".84"/><path d="M10.332 19.39a2.373 2.373 0 0 1 0 4.745H3.214a2.373 2.373 0 1 1 0-4.745h7.118z" fill-opacity=".76"/><path d="M10.616 25.671a2.373 2.373 0 0 1 2.373 4.11l-6.164 3.56a2.373 2.373 0 0 1-2.373-4.11l6.164-3.56z" fill-opacity=".68"/><path d="M14.003 30.97a2.373 2.373 0 1 1 4.11 2.372l-3.559 6.164a2.373 2.373 0 1 1-4.11-2.372l3.56-6.165z" fill-opacity=".6"/><path d="M19.586 33.863a2.373 2.373 0 0 1 4.745 0v7.119a2.373 2.373 0 0 1-4.745 0v-7.119z" fill-opacity=".52"/><path d="M25.867 33.58a2.373 2.373 0 0 1 4.11-2.374l3.559 6.165a2.373 2.373 0 1 1-4.11 2.373l-3.559-6.165z" fill-opacity=".44"/><path d="M31.165 30.192a2.373 2.373 0 0 1 2.372-4.11l6.165 3.56a2.373 2.373 0 0 1-2.373 4.11l-6.164-3.56z" fill-opacity=".36"/><path d="M34.059 24.61a2.373 2.373 0 1 1 0-4.745h7.118a2.373 2.373 0 0 1 0 4.745H34.06z" fill-opacity=".28"/><path d="M33.775 18.329a2.373 2.373 0 0 1-2.373-4.11l6.164-3.56a2.373 2.373 0 0 1 2.373 4.11l-6.164 3.56z" fill-opacity=".2"/><path d="M30.388 13.03a2.373 2.373 0 1 1-4.11-2.372l3.559-6.164a2.373 2.373 0 1 1 4.11 2.372l-3.56 6.165z" fill-opacity=".12"/></g></svg>