<svg width="22" height="22" xmlns="http://www.w3.org/2000/svg"><g fill="#DDD" fill-rule="evenodd"><path d="M19.629 19.682H2.359C1.067 19.682 0 18.636 0 17.34V6.455a2.356 2.356 0 0 1 2.36-2.341h3.062l.903-1.831C6.715 1.51 7.543 1 8.446 1h5.134c.903 0 1.681.51 2.12 1.283l.904 1.83h3.025c1.293 0 2.36 1.047 2.36 2.342v10.898a2.361 2.361 0 0 1-2.36 2.329zM2.359 5.67a.78.78 0 0 0-.778.773V17.34a.78.78 0 0 0 .778.772h17.257a.78.78 0 0 0 .778-.772V6.455a.78.78 0 0 0-.778-.772H16.09c-.314 0-.59-.15-.703-.424l-1.142-2.254c-.113-.274-.39-.423-.703-.423H8.446a.764.764 0 0 0-.702.423L6.602 5.247c-.113.274-.39.423-.703.423h-3.54z"/><path d="M10.917 15.965c-2.397 0-4.317-1.905-4.317-4.284 0-2.379 1.92-4.284 4.317-4.284 2.398 0 4.318 1.905 4.318 4.284 0 2.379-1.92 4.284-4.318 4.284zm0-7.011A2.722 2.722 0 0 0 8.17 11.68a2.722 2.722 0 0 0 2.748 2.728 2.722 2.722 0 0 0 2.749-2.728 2.721 2.721 0 0 0-2.749-2.727zm6.753-1.682c0 .276.148.53.389.669.24.138.537.138.778 0a.77.77 0 0 0-.39-1.441.775.775 0 0 0-.777.772z"/></g></svg>