<svg width="138" height="22" xmlns="http://www.w3.org/2000/svg"><path d="M69.19 12.115h.692v-1.751h-.692v1.75zm0-4.128h.692V6.115h-.692v1.872zm6.299 0h.673V6.115h-.673v1.872zm-3.156 0h.703V6.115h-.703v1.872zm0 4.128h.703v-1.751h-.703v1.751zm3.156 0h.673v-1.751h-.673v1.751zm3.577 2.377c.914.994 1.9 2.508 2.414 3.587l-2.418 1.211c-.578-1.197-1.583-2.634-2.446-3.773l1.762-1.025H67.42l1.692.863c-.76 1.666-1.763 3.077-2.84 4.095l-2.194-1.66c.76-.678 1.79-2.093 2.411-3.298h-1.702v-2.377h1.744v-1.751h-2.5V7.987h2.5v-.974c-.255.22-.512.434-.77.637l-2.257-1.542a21.07 21.07 0 0 0 1.57-1.409 19.812 19.812 0 0 0 2.54-3.052l2.561 1.186c-.165.269-.348.541-.545.817h10.881v2.465h-1.689v1.872h2.523v2.377h-2.523v1.751h1.905v2.377h-1.66zm-9.549.805l2.382-.608c.64 1.177.914 2.135 1.214 3.894l-2.619.57c-.006-.692-.597-3.013-.977-3.856zm3.504.155l2.569-.713c.662 1.127 1.145 2.176 1.51 3.768l-2.668.668c-.094-.837-.935-2.928-1.411-3.723zm27.374-11.494v11.58c0 1.24-1.065 2.243-2.39 2.243h-1.426l-.969-2.95h1.892V6.625h-2.32V19.45H92.29V5.1c-1.256.655-2.925 1.201-4.823 1.575v2.28h4.379v2.64h-4.379v3.237h4.379v2.788h-4.379v.913h-2.86V4.593l.084-.01c2.416-.298 4.525-.967 5.892-1.777l1.707 1.564v-.412h8.106zm14.91 11.331c1.185.744 2.624 1.393 4.29 1.932l-1.523 2.523c-2.77-.914-5.246-2.52-7.01-4.367l.01 1.813c-1.903.761-4.313 1.517-6.962 2.146-.31.073-.62.144-.926.212l-.592-2.913c.58-.109 1.17-.23 1.77-.361l.013-.002V4.062h4.907V1.845h3.116v2.215h4.801v7.51l.789.757a17.822 17.822 0 0 1-1.986 2.307c-.233.228-.462.445-.698.654zm6.105-4.197h7.762v8.365h-2.78v-.598h-2.202v.599h-2.78v-8.366zm16.499 0h.002v8.365h-2.84v-.598h-2.204v.599h-2.84v-8.366h7.882zM53.993 21.454H48.9V.004h5.096l-.003 21.45zM13.748 6.082l-2.913 15.374-3.567-.003L4.337 6.08v15.373H0V.003L6.494 0l2.551 13.415L11.596.002h6.49v21.456h-4.338V6.082zm20.092 10.01c0 3.706-3.041 5.856-6.773 5.856-3.734 0-6.773-2.152-6.773-5.858L20.279 0h5.094L25.383 16c0 .919.758 1.663 1.684 1.663.924 0 1.684-.744 1.684-1.663L28.759.001h5.096l-.015 16.092zm12.858.668c0 3.237-2.654 5.208-5.913 5.208-3.258 0-5.904-1.971-5.904-5.208-.011-.81-.009-2-.009-3.135l4.53-.002v3.139a1.1 1.1 0 0 0 1.103 1.096c.61 0 1.107-.492 1.107-1.096l.003-16.76h5.095l-.012 16.758zm67.86-4.633h-2.395a6.872 6.872 0 0 0 1.08 1.497 17.505 17.505 0 0 0 1.315-1.498zm-7.179-2.474h6.72v-.63h-6.72v.63zm0 5.891a44.377 44.377 0 0 0 3.018-.916c-.667-.812-1.195-1.656-1.547-2.501h-1.47v3.417zm0-8.471h6.72v-.647h-6.72v.647zm16.811 9.424h2.202v-2.935h-2.202v2.935zM134.691 3.13l-.003 7.118h-10.079V3.129h10.082zm-1.824 13.368h2.205v-2.935h-2.205v2.935zm-5.477-8.69h4.521v-2.33h-4.521v2.33z" fill="#221816" fill-rule="evenodd"/></svg>